<?xml version="1.0" encoding="UTF-8"?>
<svg version="1.1" xmlns="http://www.w3.org/2000/svg" width="394" height="394">
<path d="M0 0 C0 7.59 0 15.18 0 23 C-2.97 24.65 -5.94 26.3 -9 28 C-11.24844714 29.44969083 -13.47816283 30.92887568 -15.6875 32.4375 C-22.05127065 36.74416022 -28.50677555 40.89148722 -35 45 C-41.70513941 49.24822963 -48.37425102 53.53441085 -54.96142578 57.96313477 C-65.56827921 65.08438923 -76.29679492 72.02472331 -87 79 C-88.27520508 79.83144531 -88.27520508 79.83144531 -89.57617188 80.6796875 C-93.71237868 83.37433025 -97.85819238 86.05301991 -102.01464844 88.71630859 C-104.15906191 90.10284647 -106.28625506 91.51391077 -108.4140625 92.92578125 C-109.85904471 93.86769439 -111.3043465 94.80911748 -112.75 95.75 C-113.40629395 96.19335693 -114.06258789 96.63671387 -114.73876953 97.09350586 C-119.34802957 100.05866414 -119.34802957 100.05866414 -122.41210938 99.78295898 C-125.24729857 98.92518052 -127.31128529 97.78469942 -129.796875 96.17578125 C-130.73926025 95.57008301 -131.68164551 94.96438477 -132.65258789 94.34033203 C-133.67473389 93.67114746 -134.69687988 93.00196289 -135.75 92.3125 C-137.36733032 91.26618408 -137.36733032 91.26618408 -139.01733398 90.19873047 C-149.79484897 83.21078381 -160.4696556 76.06282739 -171.12597656 68.8918457 C-179.72616602 63.11466639 -188.43394721 57.54464995 -197.24386597 52.09306335 C-206.53762237 46.3083884 -215.67446984 40.26980176 -224.84210205 34.28811646 C-226.02344524 33.51743875 -227.20504214 32.74714978 -228.38690186 31.9772644 C-230.06353951 30.88468702 -231.73882282 29.79003217 -233.4140625 28.6953125 C-234.88286865 27.7364917 -234.88286865 27.7364917 -236.38134766 26.75830078 C-237.24550293 26.17806152 -238.1096582 25.59782227 -239 25 C-239.76715332 24.53408447 -240.53430664 24.06816895 -241.32470703 23.58813477 C-243 22 -243 22 -243.45410156 19.63989258 C-243.4331543 18.73392334 -243.41220703 17.8279541 -243.390625 16.89453125 C-243.37128906 15.42016602 -243.37128906 15.42016602 -243.3515625 13.91601562 C-243.31804687 12.89185547 -243.28453125 11.86769531 -243.25 10.8125 C-243.23195313 9.77673828 -243.21390625 8.74097656 -243.1953125 7.67382812 C-243.14814437 5.11495716 -243.08234057 2.55794158 -243 0 C-161.9838481 -34.95996632 -80.91173928 -35.75169875 0 0 Z M-152.5625 17 C-153.64192871 17.2489502 -153.64192871 17.2489502 -154.74316406 17.50292969 C-158.77131462 18.48776218 -158.77131462 18.48776218 -162 21 C-153.5744506 26.98829286 -144.98296074 32.71694203 -136.375 38.4375 C-134.97518804 39.36903188 -133.57544795 40.30067176 -132.17578125 41.23242188 C-128.78468 43.48952513 -125.39261451 45.74517201 -122 48 C-116.2482221 44.91424331 -110.77495526 41.62953348 -105.4375 37.875 C-104.06128581 36.91784237 -102.68498078 35.96081533 -101.30859375 35.00390625 C-100.60718262 34.51422363 -99.90577148 34.02454102 -99.18310547 33.52001953 C-95.46763662 30.93306929 -91.73281422 28.37432574 -88 25.8125 C-86.64574701 24.88163598 -85.29157215 23.95065829 -83.9375 23.01953125 C-82.968125 22.35308594 -81.99875 21.68664062 -81 21 C-83.73888441 18.26111559 -86.77405885 17.8449047 -90.4375 17 C-91.18161133 16.82629883 -91.92572266 16.65259766 -92.69238281 16.47363281 C-112.75283684 12.03149654 -132.57334999 12.33384502 -152.5625 17 Z " fill="#FEFEFE" transform="translate(318,31)"/>
<path d="M0 0 C18.15 0 36.3 0 55 0 C55.495 10.395 55.495 10.395 56 21 C57.21687311 24.65061934 58.02234957 24.88978535 61.25390625 26.81640625 C66.86595294 30.26809135 72.36211821 33.86616028 77.83984375 37.52734375 C78.73353668 38.12358551 79.62722961 38.71982727 80.54800415 39.33413696 C83.34521035 41.20086723 86.14137818 43.06914596 88.9375 44.9375 C90.80917226 46.18695762 92.68091656 47.43630733 94.55273438 48.68554688 C98.13101249 51.0738686 101.70889094 53.46278687 105.28637695 55.85229492 C110.01407077 59.00986518 114.74439953 62.16346117 119.4753418 65.31616211 C121.96301734 66.97533416 124.44863809 68.637539 126.93359375 70.30078125 C128.05991211 71.05391602 128.05991211 71.05391602 129.20898438 71.82226562 C130.72258128 72.83442552 132.23558171 73.84747785 133.74804688 74.86132812 C134.48990234 75.35697266 135.23175781 75.85261719 135.99609375 76.36328125 C137.03612549 77.0586499 137.03612549 77.0586499 138.09716797 77.76806641 C139.68445612 78.79571024 141.32360365 79.74267905 142.97265625 80.66796875 C145 82 145 82 146 85 C146.04325781 86.54105966 146.04016009 88.0838565 146 89.625 C145.96225644 91.08284483 145.95354285 92.54240683 146 94 C146.33 94.33 146.66 94.66 147 95 C147.07210404 97.84810965 146.99622599 100.68303927 146.9375 103.53125 C146.71492704 105.94458856 146.71492704 105.94458856 148 107 C148 109.66666667 148 112.33333333 148 115 C148.33 115.33 148.66 115.66 149 116 C149.07210404 118.84810965 148.99622599 121.68303927 148.9375 124.53125 C148.71492704 126.94458856 148.71492704 126.94458856 150 128 C150.07164161 130.32835228 149.9964482 132.6402961 149.9375 134.96875 C149.76775055 136.99609236 149.76775055 136.99609236 151 138 C151.07189368 140.58817253 150.99632443 143.1617251 150.9375 145.75 C150.74127744 147.97034405 150.74127744 147.97034405 152 149 C152.07205511 150.68608966 152.08386068 152.37500659 152.0625 154.0625 C152.05347656 154.98160156 152.04445312 155.90070313 152.03515625 156.84765625 C152.01775391 157.91306641 152.01775391 157.91306641 152 159 C141.68119095 159.23294096 131.36301932 159.4100021 121.04210472 159.51812172 C116.24814575 159.57004751 111.45600094 159.64032889 106.66308594 159.75439453 C102.02688746 159.8640247 97.39241972 159.9230406 92.75502396 159.94877243 C90.99676927 159.96707908 89.2385965 160.00282611 87.48109055 160.05730057 C74.14064505 160.45388836 67.03563767 157.70559492 57 149 C54.96306943 147.44090105 52.89114631 145.9414109 50.8125 144.4375 C49.95269531 143.79683594 49.09289063 143.15617188 48.20703125 142.49609375 C45.98532392 140.84479812 45.98532392 140.84479812 43 140 C42.67 139.34 42.34 138.68 42 138 C41.01 137.67 40.02 137.34 39 137 C39 136.34 39 135.68 39 135 C38.1330249 134.83588623 38.1330249 134.83588623 37.24853516 134.66845703 C34.71975926 133.91668848 33.14113904 132.86990084 31.0234375 131.3046875 C30.26933594 130.75296875 29.51523437 130.20125 28.73828125 129.6328125 C27.95839844 129.05273438 27.17851563 128.47265625 26.375 127.875 C24.84173228 126.74659854 23.30787417 125.61899887 21.7734375 124.4921875 C21.0442511 123.92925491 20.3150647 123.36632233 19.56378174 122.78633118 C17.09735905 120.9388496 17.09735905 120.9388496 14.43450928 119.90348816 C11.11872468 118.30410347 9.30578132 116.9030691 7 114 C4.68808661 106.99324443 4.84016945 99.23594856 4.4921875 91.93359375 C4.35355015 89.73485586 4.21083444 87.5363717 4.0642395 85.33815002 C3.69002851 79.55375998 3.37355605 73.7675751 3.06842041 67.97918701 C2.74892762 62.1290109 2.3709526 56.2826418 2 50.43554688 C1.46621116 41.84458758 0.94836916 33.25296713 0.48388672 24.65795898 C0.434142 23.78421631 0.38439728 22.91047363 0.33314514 22.01025391 C-0.05178252 14.64429874 0 7.41025235 0 0 Z M40 51 C40.33 54.96 40.66 58.92 41 63 C42.03479492 63.47719482 43.06958984 63.95438965 44.13574219 64.44604492 C62.39208964 72.86557764 80.64776966 81.28632978 98.87792969 89.76245117 C100.89709785 90.70124028 102.91723478 91.63794944 104.93847656 92.57226562 C107.1607562 93.60862059 109.37530096 94.66161305 111.58496094 95.72460938 C113.34888184 96.56475586 113.34888184 96.56475586 115.1484375 97.421875 C116.755979 98.1967627 116.755979 98.1967627 118.39599609 98.98730469 C119.25531738 99.32149414 120.11463867 99.65568359 121 100 C121.66 99.67 122.32 99.34 123 99 C122.67 98.67 122.34 98.34 122 98 C122.00902344 97.41089844 122.01804687 96.82179687 122.02734375 96.21484375 C121.9113309 93.27417016 121.45705745 91.58165953 120 89 C115.75419815 86.10694359 111.17783889 84.16149657 106.47900391 82.11279297 C102.05495733 80.12689536 97.75918144 77.8849325 93.4375 75.6875 C75.87519611 66.88329638 58.24708071 58.29883228 40 51 Z M44 91 C43.42156268 95.04906126 43.55276851 98.15180113 45 102 C47.79213828 103.94906674 47.79213828 103.94906674 51.390625 105.31640625 C52.76540542 105.90893775 54.1398186 106.50232185 55.51391602 107.09643555 C56.24498566 107.40398773 56.9760553 107.71153992 57.72927856 108.02841187 C61.6259363 109.69569979 65.45366285 111.51025977 69.29296875 113.3046875 C70.91959109 114.0575318 72.54663188 114.8094726 74.17407227 115.56054688 C74.99465118 115.93945068 75.8152301 116.31835449 76.66067505 116.70874023 C93.84224165 124.64660684 93.84224165 124.64660684 111.0625 132.5 C112.1911145 133.01409424 112.1911145 133.01409424 113.3425293 133.53857422 C117.1689852 135.26000496 120.99413713 136.75012079 125 138 C125 134.7 125 131.4 125 128 C124.29842773 127.67427002 123.59685547 127.34854004 122.87402344 127.01293945 C120.73860233 126.02149394 118.60318616 125.0300378 116.46777344 124.03857422 C113.95545032 122.87213251 111.4430743 121.70580482 108.93066406 120.53955078 C102.53625587 117.57116825 96.14237081 114.60167409 89.75 111.62890625 C78.2797474 106.29579151 66.80452765 100.97355605 55.3125 95.6875 C54.28415039 95.21296387 53.25580078 94.73842773 52.19628906 94.24951172 C51.26139648 93.82041504 50.32650391 93.39131836 49.36328125 92.94921875 C48.54126221 92.57112061 47.71924316 92.19302246 46.87231445 91.8034668 C45.18641181 90.93427448 45.18641181 90.93427448 44 91 Z " fill="#FEFEFE" transform="translate(6,34)"/>
<path d="M0 0 C18.15 0 36.3 0 55 0 C55 8.22025468 54.99574351 16.36332384 54.64306641 24.56274414 C54.60370468 25.51926376 54.56434296 26.47578339 54.52378845 27.46128845 C54.1527796 36.17511642 53.68958321 44.88383208 53.1945591 53.59142399 C52.86528167 59.41454073 52.56910169 65.23538626 52.34863281 71.0637207 C52.13267866 76.74614378 51.83190152 82.41840475 51.47306442 88.09353447 C51.35176147 90.23880875 51.25987963 92.38597777 51.19951248 94.53383064 C50.71349674 110.77976042 50.71349674 110.77976042 46.18721771 116.1513176 C41.9072926 120.01890705 37.18478751 122.96466462 32.15597153 125.75652885 C29.07638787 127.53269954 26.36223554 129.62457819 23.5625 131.8125 C19.3628866 135 19.3628866 135 16 135 C16 135.66 16 136.32 16 137 C15.01 137.33 14.02 137.66 13 138 C12.67 138.66 12.34 139.32 12 140 C11.01 140 10.02 140 9 140 C9 140.66 9 141.32 9 142 C8.01 142.33 7.02 142.66 6 143 C5.67 143.66 5.34 144.32 5 145 C3.30782756 145.96055331 1.61379805 146.91807628 -0.09217453 147.85390091 C-2.47431804 149.28493984 -4.50874366 151.06174494 -6.62056541 152.85918617 C-15.66143133 160.26182205 -23.78819942 160.32673952 -35.0859375 159.9765625 C-36.8819277 159.95786296 -38.67796964 159.94365122 -40.47402954 159.9336853 C-45.15411413 159.89587905 -49.83099155 159.79799619 -54.50982666 159.68664551 C-59.30298492 159.58351853 -64.0966722 159.53850164 -68.890625 159.48828125 C-78.26180993 159.38170123 -87.63063619 159.2115078 -97 159 C-97.02688151 157.35425434 -97.04634123 155.70838587 -97.0625 154.0625 C-97.07410156 153.14597656 -97.08570313 152.22945312 -97.09765625 151.28515625 C-97 149 -97 149 -96 148 C-95.95372155 146.33397597 -95.96213099 144.66623639 -96 143 C-96.03786901 141.33376361 -96.04627845 139.66602403 -96 138 C-95.67 137.67 -95.34 137.34 -95 137 C-94.95386799 135.50070956 -94.96203748 133.99951954 -95 132.5 C-95.03796252 131.00048046 -95.04613201 129.49929044 -95 128 C-94.505 127.505 -94.505 127.505 -94 127 C-93.95360136 125.1672539 -93.96220735 123.33294376 -94 121.5 C-94.03779265 119.66705624 -94.04639864 117.8327461 -94 116 C-93.505 115.505 -93.505 115.505 -93 115 C-92.95386799 113.50070956 -92.96203748 111.99951954 -93 110.5 C-93.03796252 109.00048046 -93.04613201 107.49929044 -93 106 C-92.505 105.505 -92.505 105.505 -92 105 C-91.95372155 103.33397597 -91.96213099 101.66623639 -92 100 C-92.03786901 98.33376361 -92.04627845 96.66602403 -92 95 C-91.505 94.505 -91.505 94.505 -91 94 C-90.9278635 91.73671744 -91.00351911 89.48995407 -91.0625 87.2265625 C-91 85 -91 85 -90 82 C-88.36450195 80.71655273 -88.36450195 80.71655273 -86.23828125 79.43359375 C-85.44744141 78.94697266 -84.65660156 78.46035156 -83.84179688 77.95898438 C-83.00712891 77.45689453 -82.17246094 76.95480469 -81.3125 76.4375 C-75.59595679 72.97563283 -70.04799832 69.36872557 -64.63671875 65.4453125 C-55.46124934 58.80507466 -45.97097866 52.6448422 -36.5 46.4375 C-34.70687491 45.25870132 -32.91390542 44.07966592 -31.12109375 42.90039062 C-29.36198919 41.74477641 -27.60287475 40.58917723 -25.84375 39.43359375 C-24.99603027 38.8754599 -24.14831055 38.31732605 -23.27490234 37.74227905 C-19.42321038 35.21312832 -15.56152168 32.71180264 -11.63671875 30.29736328 C-10.97949829 29.8894606 -10.32227783 29.48155792 -9.6451416 29.06129456 C-7.91594926 27.99334643 -6.17804366 26.93954177 -4.43945312 25.88696289 C-1.58111624 24.07822003 -1.58111624 24.07822003 -1 20 C-0.67 13.4 -0.34 6.8 0 0 Z M8.078125 53.87890625 C6.00247182 54.99866652 3.95406527 55.85134237 1.75 56.6875 C-9.98628671 61.23575701 -21.27071491 67.06545784 -32.48730469 72.75756836 C-36.78815262 74.92882355 -41.12454796 77.01199921 -45.484375 79.0625 C-46.62052246 79.5989917 -47.75666992 80.1354834 -48.92724609 80.68823242 C-51.19773224 81.75787867 -53.4714357 82.82072627 -55.74853516 83.8762207 C-56.78800293 84.36695068 -57.8274707 84.85768066 -58.8984375 85.36328125 C-59.83349121 85.79938721 -60.76854492 86.23549316 -61.73193359 86.68481445 C-64.27746264 87.93786648 -64.27746264 87.93786648 -66 91 C-66.45394552 93.27912938 -66.45394552 93.27912938 -66.625 95.6875 C-66.75 97.125 -66.875 98.5625 -67 100 C-59.51103623 97.77684066 -52.65629179 94.55859729 -45.67108154 91.10519409 C-42.25176171 89.41552466 -38.82293809 87.74535336 -35.39453125 86.07421875 C-34.69634277 85.73348831 -33.9981543 85.39275787 -33.27880859 85.04170227 C-21.93549526 79.5184415 -10.46015408 74.27517016 1 69 C3.43515693 67.876867 5.86991593 66.7528747 8.3046875 65.62890625 C9.39507324 65.12560791 10.48545898 64.62230957 11.60888672 64.10375977 C12.3979541 63.73951904 13.18702148 63.37527832 14 63 C14.33 59.04 14.66 55.08 15 51 C12.17672185 51 10.45227077 52.48433689 8.078125 53.87890625 Z M1.8125 94.5625 C0.98733887 94.92964111 0.16217773 95.29678223 -0.68798828 95.67504883 C-5.30569673 97.74581225 -9.86497757 99.88917871 -14.375 102.1875 C-32.58374218 111.44008178 -51.35010979 119.68489918 -70 128 C-70.33 131.63 -70.66 135.26 -71 139 C-66.85187691 138.17037538 -64.2823964 137.33509718 -60.58984375 135.515625 C-59.531604 134.9990332 -58.47336426 134.48244141 -57.38305664 133.95019531 C-55.6775061 133.10859863 -55.6775061 133.10859863 -53.9375 132.25 C-51.49908068 131.05902854 -49.05823271 129.87307839 -46.6171875 128.6875 C-45.99040604 128.38257629 -45.36362457 128.07765259 -44.71784973 127.76348877 C-38.03386172 124.51794593 -31.3040758 121.37421284 -24.5625 118.25 C-23.40443848 117.71310547 -22.24637695 117.17621094 -21.05322266 116.62304688 C-12.98788265 112.89512848 -4.89828682 109.22302265 3.22631836 105.62597656 C6.86817043 104.21346457 6.86817043 104.21346457 10 102 C10.23363881 100.15108054 10.41303635 98.29511969 10.5625 96.4375 C10.68818359 94.91962891 10.68818359 94.91962891 10.81640625 93.37109375 C10.87699219 92.58863281 10.93757813 91.80617188 11 91 C8.07474965 91 4.51815626 93.35740234 1.8125 94.5625 Z " fill="#FEFEFE" transform="translate(332,34)"/>
<path d="M0 0 C0 30.03 0 60.06 0 91 C24.42 90.67 48.84 90.34 74 90 C74 60.3 74 30.6 74 0 C77.65786011 0.73157202 79.70188841 1.16419327 82.82470703 2.75 C83.53539337 3.10707031 84.24607971 3.46414062 84.978302 3.83203125 C85.73054047 4.21746094 86.48277893 4.60289062 87.2578125 5 C88.43511429 5.59361328 88.43511429 5.59361328 89.63619995 6.19921875 C92.13537992 7.46048075 94.63034339 8.72981804 97.125 10 C99.62747681 11.26878025 102.13080524 12.53583732 104.63522339 13.80078125 C106.19130239 14.58729717 107.74613922 15.37627655 109.29959106 16.16796875 C112.1732715 17.62471515 114.93868249 18.97956083 118 20 C118.44475217 37.54135784 118.77930989 55.08094666 118.98443127 72.62666035 C119.08222759 80.77459459 119.21540673 88.91901797 119.43334961 97.06469727 C119.6233296 104.16867046 119.74543506 111.27010188 119.7876814 118.37654465 C119.81236988 122.13767461 119.86988077 125.89153767 120.00887108 129.65032387 C120.81988123 152.43733194 120.81988123 152.43733194 116.10889053 158.38924789 C111.24799274 162.55921536 105.34346145 165.80932327 99 167 C96.81364727 166.76015186 96.81364727 166.76015186 95 166 C93.80027724 163.65054294 92.89193221 161.46619257 92 159 C91.33793864 157.33149858 90.67104685 155.66490791 90 154 C89.6596875 153.1440625 89.319375 152.288125 88.96875 151.40625 C88.17184062 149.42682992 87.34055109 147.46128587 86.5 145.5 C84.21552101 140.16954901 82.10076361 134.77260007 79.9609375 129.3828125 C79.45433594 128.11050781 79.45433594 128.11050781 78.9375 126.8125 C78.61136719 125.99265625 78.28523438 125.1728125 77.94921875 124.328125 C77.08932669 122.21908934 76.18017045 120.14119078 75.25 118.0625 C74 115 74 115 74 112 C73.34 112 72.68 112 72 112 C72 110.35 72 108.7 72 107 C48.57 107 25.14 107 1 107 C1 108.65 1 110.3 1 112 C0.34 112 -0.32 112 -1 112 C-1 113.65 -1 115.3 -1 117 C-1.66 117 -2.32 117 -3 117 C-3 118.65 -3 120.3 -3 122 C-3.66 122 -4.32 122 -5 122 C-5.12761719 122.72703125 -5.25523437 123.4540625 -5.38671875 124.203125 C-5.97443253 126.88339931 -6.7730017 129.21544637 -7.8125 131.75 C-8.16957031 132.62140625 -8.52664062 133.4928125 -8.89453125 134.390625 C-10.22073084 137.52101838 -11.60515433 140.6223938 -13 143.72265625 C-14.04841092 146.11024832 -15.03286603 148.51588722 -16 150.9375 C-16.33 151.75992188 -16.66 152.58234375 -17 153.4296875 C-17.69491218 155.21582895 -18.3595134 157.01394013 -19 158.8203125 C-19.33 159.72523438 -19.66 160.63015625 -20 161.5625 C-20.433125 162.80193359 -20.433125 162.80193359 -20.875 164.06640625 C-22 166 -22 166 -23.80366707 166.69740772 C-29.60424359 167.49656237 -35.4502693 163.61031478 -40.01361084 160.38339233 C-44.63283512 156.19297131 -45.37160659 152.19665174 -45.91823006 146.12407398 C-46.12107691 139.87600626 -46.04390417 133.6685389 -45.82509089 127.42231011 C-45.71183783 123.64061622 -45.70193978 119.85861312 -45.68063354 116.07548523 C-45.62488764 108.92650678 -45.4774954 101.78253831 -45.29634273 94.63575763 C-45.09448489 86.49368453 -44.99602234 78.35135977 -44.9058249 70.20740378 C-44.7181413 53.4686786 -44.40197494 36.73498035 -44 20 C-43.35399338 19.69394333 -42.70798676 19.38788666 -42.04240417 19.07255554 C-39.06224384 17.65891982 -36.08385352 16.24159136 -33.10546875 14.82421875 C-32.08964722 14.34303589 -31.07382568 13.86185303 -30.02722168 13.36608887 C-22.97645854 10.00649971 -16.04987914 6.47652521 -9.24182129 2.64807129 C-5.79387655 0.754423 -4.03360427 0 0 0 Z " fill="#FEFEFE" transform="translate(160,217)"/>
<path d="M0 0 C4.7647708 0.48983625 7.84817249 2.75685434 11.5625 5.5625 C12.80478437 6.47690006 14.04829567 7.38963535 15.29296875 8.30078125 C15.91349121 8.75662598 16.53401367 9.2124707 17.17333984 9.68212891 C19.85562998 11.61730695 22.61093764 13.43421824 25.375 15.25 C26.33792969 15.90226563 27.30085938 16.55453125 28.29296875 17.2265625 C30.91852508 19.00280851 30.91852508 19.00280851 33.48828125 20.3359375 C35.88010421 21.73789412 37.39871012 22.72352236 39 25 C39.21484375 28.16796875 39.21484375 28.16796875 39.125 31.8125 C39.23151413 37.22904311 39.23151413 37.22904311 42.37890625 41.41796875 C46.99805021 44.32470279 51.71873725 46.97539799 56.70090103 49.21307755 C73.84825105 56.91722641 73.84825105 56.91722641 77.22878265 64.90258026 C78.96541275 72.74196113 78.60522764 80.68629022 78.23066664 88.66065168 C78.0916997 92.12562707 78.0801096 95.59117069 78.05410767 99.0585022 C77.98611817 105.60330913 77.80622167 112.13988642 77.58441889 118.68109095 C77.33720722 126.13596709 77.21724548 133.59126931 77.10711932 141.0492332 C76.87806663 156.37089871 76.49197941 171.68438275 76 187 C71.76499344 186.23634558 68.47350535 184.91705348 64.6171875 182.97265625 C64.00947006 182.66801956 63.40175262 182.36338287 62.77561951 182.04951477 C60.80567098 181.05981767 58.84031185 180.06136822 56.875 179.0625 C55.51605138 178.37740531 54.15691944 177.69267416 52.79760742 177.00830078 C44.49780102 172.82015948 36.2464035 168.54592968 28.046875 164.16430664 C23.07236175 161.51791543 18.03709921 159.11398613 12.8359375 156.9375 C11 156 11 156 10 154 C9.78753592 152.09475414 9.63095514 150.18318439 9.50010681 148.27059937 C9.41459061 147.05094482 9.3290744 145.83129028 9.2409668 144.57467651 C9.15006299 143.21564279 9.0592456 141.85660328 8.96850586 140.49755859 C8.87019872 139.07181342 8.77152143 137.64609373 8.67250061 136.22039795 C8.40413859 132.34020186 8.14118336 128.45965624 7.87931514 124.57901716 C7.60446886 120.51730295 7.32519249 116.45589313 7.04652405 112.3944397 C6.57874242 105.56670816 6.11437293 98.73875109 5.65209961 91.91064453 C5.11834879 84.0272504 4.57968185 76.14420438 4.03824323 68.26133478 C3.51720416 60.67430334 2.99927353 53.08706295 2.48288155 45.4997139 C2.26332311 42.27418261 2.04276023 39.04872237 1.82139397 35.82331467 C1.56030746 32.01667351 1.30197714 28.20985472 1.04572105 24.40288544 C0.95151989 23.00970552 0.85640951 21.61658673 0.76029587 20.22353745 C0.29492579 13.47033098 -0.12283631 6.77039185 0 0 Z " fill="#FEFEFE" transform="translate(31,176)"/>
<path d="M0 0 C4.22161568 0.500563 6.87107788 1.24076483 10.25 3.8125 C15.27825192 7.5101991 20.42413689 10.98941115 25.625 14.4375 C26.44387695 14.98188721 27.26275391 15.52627441 28.10644531 16.0871582 C30.07023458 17.39254204 32.03476087 18.6968004 34 20 C42.35108892 15.59674629 50.10295842 10.37764316 57.91210938 5.08789062 C58.89630859 4.43369141 59.88050781 3.77949219 60.89453125 3.10546875 C61.77987549 2.50887451 62.66521973 1.91228027 63.57739258 1.29760742 C66 0 66 0 70 0 C69.61067954 5.64787737 69.21996033 11.29565593 68.828125 16.94335938 C68.69593531 18.8512125 68.56408166 20.75908895 68.43261719 22.66699219 C68.23989419 25.46295815 68.04578347 28.25882521 67.8515625 31.0546875 C67.78942062 31.95696075 67.72727875 32.85923401 67.66325378 33.78884888 C67.30932759 38.85364064 66.93002325 43.91423955 66.49389648 48.97265625 C65.21351232 64.02467549 64.66691747 78.96826726 64.5859375 94.0703125 C64.56715114 96.34244429 64.54757273 98.61456965 64.5272522 100.88668823 C64.47671149 106.76847477 64.43667703 112.65028375 64.39910889 118.53216553 C64.35856937 124.57357976 64.30770951 130.61490709 64.2578125 136.65625 C64.16198226 148.43743826 64.0772915 160.21867651 64 172 C61.42866541 173.28566729 59.602829 173.12009778 56.72412109 173.11352539 C55.07263565 173.11341209 55.07263565 173.11341209 53.38778687 173.11329651 C52.19505157 173.10813522 51.00231628 173.10297394 49.7734375 173.09765625 C48.55548492 173.0962413 47.33753235 173.09482635 46.08267212 173.09336853 C42.1800901 173.08775639 38.27756477 173.07520179 34.375 173.0625 C31.73437583 173.05748657 29.09375076 173.05292339 26.453125 173.04882812 C19.96873055 173.03778301 13.48436932 173.02103302 7 173 C7.00079559 171.92547073 7.00159119 170.85094147 7.00241089 169.74385071 C7.00758655 155.93316147 6.95963044 142.1229253 6.875 128.3125 C6.86825886 127.20671097 6.86151772 126.10092194 6.8545723 124.96162415 C6.61147696 87.98839402 4.92233525 51.44994926 0.88917542 14.6971283 C0.77226852 13.62886307 0.65536163 12.56059784 0.53491211 11.45996094 C0.43133896 10.54309509 0.32776581 9.62622925 0.22105408 8.68157959 C-0.01839158 5.77689405 -0.03663192 2.91323242 0 0 Z " fill="#FEFEFE" transform="translate(162,125)"/>
<path d="M0 0 C-0.60567641 17.48814997 -1.65908844 34.92901032 -2.8858242 52.38351274 C-3.08354717 55.20269785 -3.27911537 58.02203096 -3.47471476 60.84136409 C-3.93540106 67.48128584 -4.39940349 74.12096967 -4.86572266 80.76049805 C-5.34562259 87.59412239 -5.82013369 94.42810629 -6.29206705 101.26228505 C-6.70027265 107.17124848 -7.11152146 113.07999451 -7.52528524 118.98857135 C-7.77123376 122.50096739 -8.0160838 126.01343075 -8.2580719 129.52610207 C-8.52630788 133.41721492 -8.80091046 137.30786382 -9.07617188 141.19848633 C-9.1551622 142.35624069 -9.23415253 143.51399506 -9.3155365 144.70683289 C-9.39119339 145.76169891 -9.46685028 146.81656494 -9.5447998 147.90339661 C-9.64102253 149.27942661 -9.64102253 149.27942661 -9.73918915 150.6832552 C-10 153 -10 153 -11 156 C-12.85986328 157.15991211 -12.85986328 157.15991211 -15.3203125 158.27734375 C-16.23683594 158.70233154 -17.15335937 159.12731934 -18.09765625 159.56518555 C-19.09667969 160.01804932 -20.09570312 160.47091309 -21.125 160.9375 C-29.51724434 164.84207855 -37.80583795 168.88182533 -46 173.1875 C-47.42965088 173.93713013 -47.42965088 173.93713013 -48.88818359 174.7019043 C-53.16430588 176.95270969 -57.42753015 179.22497806 -61.671875 181.53515625 C-62.36925781 181.91325439 -63.06664062 182.29135254 -63.78515625 182.6809082 C-65.60521189 183.67121929 -67.42003095 184.67113815 -69.234375 185.671875 C-72 187 -72 187 -75 187 C-75.23381212 170.82316313 -75.41004308 154.64687589 -75.51812172 138.46875668 C-75.5696435 130.95654185 -75.6398551 123.44537799 -75.75439453 115.93383789 C-75.85420446 109.385131 -75.91861305 102.83718523 -75.94088495 96.28773886 C-75.95390157 92.82073403 -75.98438367 89.35590614 -76.05730057 85.88960075 C-76.13812616 82.01575448 -76.1398909 78.14401908 -76.13525391 74.26928711 C-76.17120667 73.12561172 -76.20715942 71.98193634 -76.24420166 70.80360413 C-76.14535668 63.17168509 -76.14535668 63.17168509 -72.81423664 59.76399231 C-70.27907035 57.96872136 -67.74233313 56.45370681 -65 55 C-63.35535767 53.93289795 -63.35535767 53.93289795 -61.67749023 52.84423828 C-60.73075439 52.25884277 -59.78401855 51.67344727 -58.80859375 51.0703125 C-57.23948242 50.09578125 -57.23948242 50.09578125 -55.63867188 49.1015625 C-54.58228516 48.44929688 -53.52589844 47.79703125 -52.4375 47.125 C-50.28964352 45.79543497 -48.14246841 44.46476836 -45.99609375 43.1328125 C-45.05950928 42.55418457 -44.1229248 41.97555664 -43.15795898 41.37939453 C-41.1032388 40.17488983 -41.1032388 40.17488983 -40 39 C-40.10441406 37.62714844 -40.10441406 37.62714844 -40.2109375 36.2265625 C-40.39841145 32.1110629 -40.16232894 28.96510793 -39 25 C-35.29958048 20.99573372 -31.07288403 18.33875916 -26.4375 15.51708984 C-23.71464817 13.82239821 -21.07837379 12.026713 -18.4375 10.20703125 C-10.77882797 4.95626876 -10.77882797 4.95626876 -7.359375 2.67578125 C-6.20646973 1.9010144 -6.20646973 1.9010144 -5.03027344 1.1105957 C-3 0 -3 0 0 0 Z " fill="#FEFEFE" transform="translate(362,176)"/>
<path d="M0 0 C1.35568336 0.00333092 1.35568336 0.00333092 2.73875427 0.00672913 C3.75973709 0.00680466 4.78071991 0.00688019 5.8326416 0.00695801 C6.94304306 0.01211929 8.05344452 0.01728058 9.19749451 0.02259827 C10.89336952 0.02472069 10.89336952 0.02472069 12.62350464 0.02688599 C16.25105891 0.03250433 19.8785525 0.04505994 23.50608826 0.05775452 C25.95856133 0.06276715 28.41103536 0.06733047 30.86351013 0.07142639 C36.89022371 0.08247971 42.91690165 0.09923568 48.94358826 0.12025452 C51.64358253 6.75839403 54.19727102 13.43321668 56.61546326 20.17884827 C56.94274414 21.08981766 57.27002502 22.00078705 57.60722351 22.93936157 C58.29051199 24.84393979 58.97277368 26.74888668 59.65403748 28.65419006 C60.70021208 31.5762555 61.75346648 34.49571024 62.80686951 37.41517639 C63.47266888 39.27374465 64.13804877 41.13246325 64.80296326 42.99134827 C65.11852173 43.8631926 65.4340802 44.73503693 65.75920105 45.63330078 C66.04660156 46.44166885 66.33400208 47.25003693 66.63011169 48.082901 C67.01172455 49.14685341 67.01172455 49.14685341 67.40104675 50.2322998 C67.94358826 52.12025452 67.94358826 52.12025452 67.94358826 55.12025452 C38.57358826 55.12025452 9.20358826 55.12025452 -21.05641174 55.12025452 C-18.80610984 44.99389596 -18.80610984 44.99389596 -17.3764801 40.98353577 C-17.05952682 40.0865094 -16.74257355 39.18948303 -16.41601562 38.26527405 C-16.07949478 37.3305426 -15.74297394 36.39581116 -15.39625549 35.43275452 C-14.87135277 33.95718079 -14.87135277 33.95718079 -14.33584595 32.45179749 C-13.60127713 30.39034465 -12.86413328 28.32980772 -12.12452698 26.27015686 C-10.98805191 23.10392898 -9.86049923 19.93462679 -8.73414612 16.76478577 C-8.01786773 14.7580902 -7.30108894 12.75157317 -6.58375549 10.74525452 C-6.24521042 9.79432922 -5.90666534 8.84340393 -5.55786133 7.86366272 C-5.24406021 6.99185364 -4.93025909 6.12004456 -4.60694885 5.22181702 C-4.33096359 4.45176331 -4.05497833 3.68170959 -3.77062988 2.88832092 C-2.79106209 0.46337424 -2.66194265 0.15566466 0 0 Z " fill="#FEFEFE" transform="translate(173.05641174316406,334.87974548339844)"/>
</svg>
